# xmcd CD database file
#
# Track frame offsets:
#	182
#	16000
#	36492
#	60237
#	72675
#	94240
#	114235
#	142845
#	168427
#	185860
#	198297
#	218550
#	241592
#	258100
#	284037
#	300742
#	317427
#	331482
#
# Disc length: 4687 seconds
#
# Revision: 1
# Processed by: cddbd v1.5.2PL0 Copyright (c) Steve Scherf et al.
# Submitted via: CDex 1.70beta2
#
DISCID=fc124d12
DTITLE=Blues Guitar Masters - Blues Guitar Masters - CD1
DYEAR=1997
DGENRE=Blues
TTITLE0=Hound Dog Taylor - Aint Got Nobody
TTITLE1=John Lee Hooker - Boogie At Russian Hill
TTITLE2=B.B.King - Playin With My Friends
TTITLE3=Albert King - Born Under Bad Sign
TTITLE4=Freddie King - Hide Away
TTITLE5=Buddy Guy - Damn Right Ive Got The Blues
TTITLE6=Luther Allison - Bad Love
TTITLE7=Jimmy Johnson - Jokey
TTITLE8=Melvin Taylor - Depression Blues
TTITLE9=Duke Robilard - Tell Me Why
TTITLE10=Johnny Trackery - Trouble Man
TTITLE11=Lucky Peterson - Compared To Whad
TTITLE12=Mike Welch - These Blues Are Mine
TTITLE13=Bill Perry - Down
TTITLE14=Popa Chubby - Palace Of The King
TTITLE15=Bills Blues Mob - Lost In The Sauce
TTITLE16=Eric Clapton - Draggin My Tail
TTITLE17=Boby Galhager - Lonshark Blues
EXTD=YEAR: 1997
EXTT0=
EXTT1=
EXTT2=
EXTT3=
EXTT4=
EXTT5=
EXTT6=
EXTT7=
EXTT8=
EXTT9=
EXTT10=
EXTT11=
EXTT12=
EXTT13=
EXTT14=
EXTT15=
EXTT16=
EXTT17=
PLAYORDER=
